<svg xmlns="http://www.w3.org/2000/svg" xmlns:xlink="http://www.w3.org/1999/xlink" viewBox="0 0 366.17 368.87">
	<defs>
		<style>
			.cls-1,
			.cls-4 {
				fill: #0f4c81;
			}

			.cls-1,
			.cls-2,
			.cls-28,
			.cls-3,
			.cls-6 {
				stroke: #263238;
			}

			.cls-1,
			.cls-11,
			.cls-2,
			.cls-28,
			.cls-29,
			.cls-3,
			.cls-6 {
				stroke-linecap: round;
				stroke-linejoin: round;
			}

			.cls-12,
			.cls-19,
			.cls-2,
			.cls-5,
			.cls-8 {
				fill: #fff;
			}

			.cls-3,
			.cls-7 {
				fill: #263238;
			}

			.cls-5 {
				opacity: 0.7;
			}

			.cls-11,
			.cls-28,
			.cls-29,
			.cls-6 {
				fill: none;
			}

			.cls-8 {
				opacity: 0.5;
			}

			.cls-9 {
				clip-path: url(#clip-path);
			}

			.cls-10 {
				opacity: 0.13;
			}

			.cls-11,
			.cls-29 {
				stroke: #fff;
			}

			.cls-13 {
				clip-path: url(#clip-path-2);
			}

			.cls-14 {
				clip-path: url(#clip-path-3);
			}

			.cls-15 {
				clip-path: url(#clip-path-4);
			}

			.cls-16 {
				clip-path: url(#clip-path-5);
			}

			.cls-17 {
				clip-path: url(#clip-path-6);
			}

			.cls-18 {
				clip-path: url(#clip-path-7);
			}

			.cls-19 {
				opacity: 0.53;
			}

			.cls-20 {
				opacity: 0.14;
			}

			.cls-21 {
				clip-path: url(#clip-path-8);
			}

			.cls-22 {
				clip-path: url(#clip-path-9);
			}

			.cls-23 {
				clip-path: url(#clip-path-10);
			}

			.cls-24 {
				clip-path: url(#clip-path-11);
			}

			.cls-25 {
				clip-path: url(#clip-path-12);
			}

			.cls-26 {
				clip-path: url(#clip-path-13);
			}

			.cls-27 {
				clip-path: url(#clip-path-14);
			}

			.cls-28 {
				stroke-width: 2px;
			}

			.cls-29 {
				stroke-width: 0.75px;
			}

			.cls-30 {
				clip-path: url(#clip-path-15);
			}
			@keyframes tea_smoke {
				0% { 
					transform: translateY(-1%);
				}
			}
		</style>
		<clipPath id="clip-path" transform="translate(-4.57 -2.64)">
			<path class="cls-1" d="M148.72,164.15s-26-3.08-43.19,10.28-31.88,69.24-31.53,96,10.28,40.1,35.3,51.07,71.64,6.85,97.69-1.37,34.62-37,34.27-52.45-17.48-33.24-23.31-37-22.27-11.66-30.5-24S167.23,167.58,148.72,164.15Z" />
		</clipPath>
		<clipPath id="clip-path-2" transform="translate(-4.57 -2.64)">
			<path class="cls-2" d="M147.79,166.9s-9.33,3-10.66,5.33-.34,18.67-.34,20.67,1.17-1.17,2.17-3.5,4.5-5.83,5.67-5.5,1.83,1.67,1.83,3.83,2.67,5.17,5,6.84,4.5,3.33,4.5,3.33,4.83-7,6-8.83,1-5.67,1.17-7,3.16,3.66,3.83,2.33-1.5-2.5-3.83-6.17-1.67-7.5-5.17-10.16S150.46,166.23,147.79,166.9Z" />
		</clipPath>
		<clipPath id="clip-path-3" transform="translate(-4.57 -2.64)">
			<path class="cls-2" d="M125.71,234.48s-5.75-8.25-12.75-9-15.5,5-15.75,7-2,12.75-.75,14.25,6,2.75,15.25-.25S124.71,239.73,125.71,234.48Z" />
		</clipPath>
		<clipPath id="clip-path-4" transform="translate(-4.57 -2.64)">
			<path class="cls-2" d="M106.21,236.73s-9.38,3.73-9.75,11c-.2,4,6.5,5.75,13.5,5.75s17-8.75,23.5-12.5,21.5-12.5,23.25-13.25,7.75,1.25,10.25,2a33.81,33.81,0,0,0,7.25.75s3.5,5.5,5.25,5.5-3.75-8.25-4.5-10-13-5.75-14.5-5.75S124,229,118.71,231,106.21,236.73,106.21,236.73Z" />
		</clipPath>
		<clipPath id="clip-path-5" transform="translate(-4.57 -2.64)">
			<polygon class="cls-2" points="171.71 223.98 144.93 242.92 206.18 241.17 226.71 224.23 171.71 223.98" />
		</clipPath>
		<clipPath id="clip-path-6" transform="translate(-4.57 -2.64)">
			<path class="cls-2" d="M192,242.73s22-19.25,43.75-25.75,26.25-5.5,25.75,4.25-11,60.75-18,73.75-15.75,36.75-15.5,41.25,8.75,17.75,16.25,22.5,6.75,10.5,2,11.5S236,373,219.71,362.48s-23-25.5-22-29.25,11.5-8.75,15.75-16.25,11.25-35.5,11.75-48.25a75.76,75.76,0,0,1,5-23.5s-27.5,5-35.5,10Z" />
		</clipPath>
		<clipPath id="clip-path-7" transform="translate(-4.57 -2.64)">
			<path class="cls-3" d="M213.46,317a19.08,19.08,0,0,1-1.06,1.64,25.69,25.69,0,0,1,14.06,5.86,46.16,46.16,0,0,1,3.42,3.31c4.79-6.43,10.18-26.75,16.26-35.11,15.72-21.59,14.82-61.7,15.32-71.45s-4-10.75-25.75-4.25S192,242.73,192,242.73l2.75,12.5c8-5,35.5-10,35.5-10a75.76,75.76,0,0,0-5,23.5C224.71,281.48,217.71,309.48,213.46,317Z" />
		</clipPath>
		<clipPath id="clip-path-8" transform="translate(-4.57 -2.64)">
			<path class="cls-2" d="M126.46,246.73s-8,4.5-10.75,9.5,9.08,13.34,21.58,12.84S172.71,255,172.71,255s.25,22,4.5,30,23.75,27.5,31.5,32.5,33.75,23.75,37.75,26.75,11.5,8.5,13.25,8.75,20-22,24.25-29.5,8-23.25,6.5-26.75-4.5-.5-7.5,2-30.5,20.75-33,22a27.44,27.44,0,0,1-4.25,1.75s-22.5-21.5-34.5-38-13-37.75-17.5-45.75-11-11.5-20.75-10.5S143,234.48,126.46,246.73Z" />
		</clipPath>
		<clipPath id="clip-path-9" transform="translate(-4.57 -2.64)">
			<path class="cls-3" d="M244.16,321c-5.29-5.16-25.12-31.77-32.95-47.07-11.47-22.41-12.7-30.05-17.2-38.05s-11.3-8.63-21-7.63-27.19,2.81-48.6,15c0,0-9,4.89-11.73,9.89s7.26,17.59,24.66,16c12.46-1.14,35.42-14.09,35.42-14.09s.25,22,4.5,30,23.75,27.5,31.5,32.5c4.91,3.17,17.16,11.87,26.49,18.58C237.54,327.69,241.68,323.1,244.16,321Z" />
		</clipPath>
		<clipPath id="clip-path-10" transform="translate(-4.57 -2.64)">
			<path class="cls-2" d="M284,323.48c4.25-7.5,8-23.25,6.5-26.75-.87-2-2.24-1.87-3.83-.89,1.06,4.68,0,13.69-5.17,23.39-4.61,8.66-18.85,24-26,31.42a16.62,16.62,0,0,0,4.27,2.33C261.46,353.23,279.71,331,284,323.48Z" />
		</clipPath>
		<clipPath id="clip-path-11" transform="translate(-4.57 -2.64)">
			<path class="cls-2" d="M244.21,358.73a32.94,32.94,0,0,1-6.66-6c-5.16-2.19-12.05-5-18.09-8.76-6.5-4-5-6.5-8.75-10.25-2.88-2.87-8.54-3.25-11-3.27a6.85,6.85,0,0,0-2,2.77c-1,3.75,5.75,18.75,22,29.25s21.75,8.75,26.5,7.75S251.71,363.48,244.21,358.73Z" />
		</clipPath>
		<clipPath id="clip-path-12" transform="translate(-4.57 -2.64)">
			<path class="cls-3" d="M245.46,360.48c-6.5-3.75-19.75-6.25-28.25-12s-6.25-10.75-12.5-14.75a6.37,6.37,0,0,0-7-.4c-.87,3.9,5.9,18.74,22,29.15s21.75,8.75,26.5,7.75c3.16-.66,4.53-3.43,2.9-6.6A13.66,13.66,0,0,0,245.46,360.48Z" />
		</clipPath>
		<clipPath id="clip-path-13" transform="translate(-4.57 -2.64)">
			<path class="cls-2" d="M145.11,153.94s1.17,12.63,1.66,16.61,1.61,15.45,2.76,19.24,7.41,10.38,8,8.86,3.7-11.82,2.46-17.94-1.62-11.45-.84-13,3.54-3.31,3.54-3.31a96.56,96.56,0,0,1-9.39-5.47C148.86,156,145.73,152.58,145.11,153.94Z" />
		</clipPath>
		<clipPath id="clip-path-14" transform="translate(-4.57 -2.64)">
			<path class="cls-2" d="M144.65,155.74s7.2,6,12.73,8.2,14,2.06,15.2-.81-2.1-25.6-5-31.58-5.89-6.08-10.92-6.54-15.09,3.65-16.85,8.5.24,11.75,1.71,15.82A29.78,29.78,0,0,0,144.65,155.74Z" />
		</clipPath>
		<clipPath id="clip-path-15" transform="translate(-4.57 -2.64)">
			<path class="cls-2" d="M146.81,149.78s-3.23-4.66-6.64-2.79-.75,8.52,1.3,10.83,6-2,6.4-3.08" />
		</clipPath>
	</defs>
	<title>3236268</title>
	<g id="Background_Simple" data-name="Background Simple">
		<path class="cls-4" d="M348.85,265c7.48-61.06-28.74-142.2-66.29-175.71-67.8-60.49-124.12-48.79-167.92-27.13s-50.07,94-80.31,126.74-47.45,76.75-1.56,120.57,82.91,21.56,130.89,18.78,111.6,19.1,146,.08C333.71,315.06,345.55,292,348.85,265Z" transform="translate(-4.57 -2.64)" />
		<path class="cls-5" d="M348.85,265c7.48-61.06-28.74-142.2-66.29-175.71-67.8-60.49-124.12-48.79-167.92-27.13s-50.07,94-80.31,126.74-47.45,76.75-1.56,120.57,82.91,21.56,130.89,18.78,111.6,19.1,146,.08C333.71,315.06,345.55,292,348.85,265Z" transform="translate(-4.57 -2.64)" />
	</g>
	<g id="Background">
		<polyline class="cls-6" points="8.21 262.45 150.1 262.45 365.67 332.04" />
		<path class="cls-7" d="M77.42,259.82H67.59V97.75H87.82L79.09,66.24H52.9L44.17,97.75H64.39V259.82H54.57a9.6,9.6,0,0,0-9.6,9.41v.19h0c.29,2.26,9.58,4.07,21,4.07s20.7-1.81,21-4.07h0A9.59,9.59,0,0,0,77.42,259.82Z" transform="translate(-4.57 -2.64)" />
		<path class="cls-3" d="M208,26.77V217.6l143.67,23.63V3.14ZM347.92,81.41l-73.05,4.14V19.26L347.92,7.63ZM274.87,92.53l73.05-3.35v66.66l-73.05-3.42ZM269,152.15l-58.55-2.74V95.48L269,92.8Zm0-132V85.88L210.4,89.2V29.52ZM210.4,155.69,269,159.06v65.11l-58.55-9.32Zm64.47,69.42V159.4l73.05,4.2v73.14Z" transform="translate(-4.57 -2.64)" />
	</g>
	<g id="Character">
		<ellipse class="cls-4" cx="153.86" cy="319.42" rx="114.95" ry="35.81" />
		<ellipse class="cls-8" cx="153.86" cy="319.42" rx="114.95" ry="35.81" />
		<path class="cls-4" d="M148.72,164.15s-26-3.08-43.19,10.28-31.88,69.24-31.53,96,10.28,40.1,35.3,51.07,71.64,6.85,97.69-1.37,34.62-37,34.27-52.45-17.48-33.24-23.31-37-22.27-11.66-30.5-24S167.23,167.58,148.72,164.15Z" transform="translate(-4.57 -2.64)" />
		<g class="cls-9">
			<path class="cls-10" d="M211.76,318.28c-9.85-1.32-21.53-4-30.37-9.37-18.66-11.33-23.33-32.66-30-40.66s-18.66-7.34-24-16,3.34-72.67-12-76.67a35.18,35.18,0,0,0-9.56-1.36l-.3.21c-17.14,13.37-31.88,69.24-31.53,96s10.28,40.1,35.3,51.07,71.64,6.85,97.69-1.37A43.64,43.64,0,0,0,211.76,318.28Z" transform="translate(-4.57 -2.64)" />
		</g>
		<path class="cls-6" d="M148.72,164.15s-26-3.08-43.19,10.28-31.88,69.24-31.53,96,10.28,40.1,35.3,51.07,71.64,6.85,97.69-1.37,34.62-37,34.27-52.45-17.48-33.24-23.31-37-22.27-11.66-30.5-24S167.23,167.58,148.72,164.15Z" transform="translate(-4.57 -2.64)" />
		<path class="cls-3" d="M138.46,176.23s-17,3.25-20,6.25-15.5,50-15.5,50a18.6,18.6,0,0,1,10.5.5c5,2,5.5,7.25,6,9.75a89.46,89.46,0,0,1,.75,9s50.53-4.51,61.28-7,27.11-3.65,27.11-3.65S181,178.73,176.71,176.48s-22-2.5-24.5-2S138.46,176.23,138.46,176.23Z" transform="translate(-4.57 -2.64)" />
		<line class="cls-11" x1="117.14" y1="231.35" x2="121.39" y2="196.6" />
		<line class="cls-11" x1="120.39" y1="205.85" x2="126.14" y2="198.35" />
		<path class="cls-11" d="M142.21,213s16.25-5.25,27-5.25" transform="translate(-4.57 -2.64)" />
		<path class="cls-11" d="M157.55,198.65,156.46,207s2.75,0,3,1.25a3.32,3.32,0,0,1-1,2.5s7.75,4.25,8.75,9.25" transform="translate(-4.57 -2.64)" />
		<path class="cls-12" d="M147.79,166.9s-9.33,3-10.66,5.33-.34,18.67-.34,20.67,1.17-1.17,2.17-3.5,4.5-5.83,5.67-5.5,1.83,1.67,1.83,3.83,2.67,5.17,5,6.84,4.5,3.33,4.5,3.33,4.83-7,6-8.83,1-5.67,1.17-7,3.16,3.66,3.83,2.33-1.5-2.5-3.83-6.17-1.67-7.5-5.17-10.16S150.46,166.23,147.79,166.9Z" transform="translate(-4.57 -2.64)" />
		<g class="cls-13">
			<path class="cls-4" d="M137.13,172.23c-.89,1.56-.74,9.35-.55,15,2.13-2.74,6.52-7.91,9.06-6.93,3.24,1.24,4.48,10.45,4.48,10.45l-2.18-23.84-.15,0S138.46,169.9,137.13,172.23Z" transform="translate(-4.57 -2.64)" />
			<path class="cls-8" d="M137.13,172.23c-.89,1.56-.74,9.35-.55,15,2.13-2.74,6.52-7.91,9.06-6.93,3.24,1.24,4.48,10.45,4.48,10.45l-2.18-23.84-.15,0S138.46,169.9,137.13,172.23Z" transform="translate(-4.57 -2.64)" />
		</g>
		<path class="cls-6" d="M147.79,166.9s-9.33,3-10.66,5.33-.34,18.67-.34,20.67,1.17-1.17,2.17-3.5,4.5-5.83,5.67-5.5,1.83,1.67,1.83,3.83,2.67,5.17,5,6.84,4.5,3.33,4.5,3.33,4.83-7,6-8.83,1-5.67,1.17-7,3.16,3.66,3.83,2.33-1.5-2.5-3.83-6.17-1.67-7.5-5.17-10.16S150.46,166.23,147.79,166.9Z" transform="translate(-4.57 -2.64)" />
		<path class="cls-12" d="M125.71,234.48s-5.75-8.25-12.75-9-15.5,5-15.75,7-2,12.75-.75,14.25,6,2.75,15.25-.25S124.71,239.73,125.71,234.48Z" transform="translate(-4.57 -2.64)" />
		<g class="cls-14">
			<path class="cls-4" d="M102.32,246.48s-2-5.73-1-7.72,5-5,7.47-8-5.83,1.69-6.22,0c-.32-1.36,4.38-4.07,6.23-5.08-5.82,1.11-11.39,5.16-11.59,6.77-.25,2-2,12.75-.75,14.25.65.78,2.23,1.48,4.88,1.57C101.94,247.25,102.32,246.48,102.32,246.48Z" transform="translate(-4.57 -2.64)" />
			<path class="cls-8" d="M102.32,246.48s-2-5.73-1-7.72,5-5,7.47-8-5.83,1.69-6.22,0c-.32-1.36,4.38-4.07,6.23-5.08-5.82,1.11-11.39,5.16-11.59,6.77-.25,2-2,12.75-.75,14.25.65.78,2.23,1.48,4.88,1.57C101.94,247.25,102.32,246.48,102.32,246.48Z" transform="translate(-4.57 -2.64)" />
		</g>
		<path class="cls-6" d="M125.71,234.48s-5.75-8.25-12.75-9-15.5,5-15.75,7-2,12.75-.75,14.25,6,2.75,15.25-.25S124.71,239.73,125.71,234.48Z" transform="translate(-4.57 -2.64)" />
		<path class="cls-12" d="M106.21,236.73s-9.38,3.73-9.75,11c-.2,4,6.5,5.75,13.5,5.75s17-8.75,23.5-12.5,21.5-12.5,23.25-13.25,7.75,1.25,10.25,2a33.81,33.81,0,0,0,7.25.75s3.5,5.5,5.25,5.5-3.75-8.25-4.5-10-13-5.75-14.5-5.75S124,229,118.71,231,106.21,236.73,106.21,236.73Z" transform="translate(-4.57 -2.64)" />
		<g class="cls-15">
			<path class="cls-4" d="M125.82,235.69c14.29-7.15,34.64-15.46,34.64-15.46-1.5,0-36.5,8.75-41.75,10.75s-12.5,5.75-12.5,5.75-9.38,3.73-9.75,11c-.2,4,6.5,5.75,13.5,5.75s17-8.75,23.5-12.5l3.94-2.28C127.85,239.93,115.09,241.06,125.82,235.69Z" transform="translate(-4.57 -2.64)" />
			<path class="cls-8" d="M125.82,235.69c14.29-7.15,34.64-15.46,34.64-15.46-1.5,0-36.5,8.75-41.75,10.75s-12.5,5.75-12.5,5.75-9.38,3.73-9.75,11c-.2,4,6.5,5.75,13.5,5.75s17-8.75,23.5-12.5l3.94-2.28C127.85,239.93,115.09,241.06,125.82,235.69Z" transform="translate(-4.57 -2.64)" />
		</g>
		<path class="cls-6" d="M106.21,236.73s-9.38,3.73-9.75,11c-.2,4,6.5,5.75,13.5,5.75s17-8.75,23.5-12.5,21.5-12.5,23.25-13.25,7.75,1.25,10.25,2a33.81,33.81,0,0,0,7.25.75s3.5,5.5,5.25,5.5-3.75-8.25-4.5-10-13-5.75-14.5-5.75S124,229,118.71,231,106.21,236.73,106.21,236.73Z" transform="translate(-4.57 -2.64)" />
		<path style="stroke: #00d2d3;" class="cls-2" d="M179.33,181.13,171.71,224l55,.25,8.18-40.63a2.52,2.52,0,0,0-2.4-3l-50.6-1.53A2.52,2.52,0,0,0,179.33,181.13Z" transform="translate(-4.57 -2.64)" />
		<polygon class="cls-12" points="167.14 221.35 140.35 240.29 201.6 238.54 222.14 221.6 167.14 221.35" />
		<g class="cls-16">
			<polygon class="cls-4" points="167.14 221.35 140.35 240.29 201.6 238.54 222.14 221.6 167.14 221.35" />
			<polygon class="cls-8" points="167.14 221.35 140.35 240.29 201.6 238.54 222.14 221.6 167.14 221.35" />
		</g>
		<polygon class="cls-6" points="167.14 221.35 140.35 240.29 201.6 238.54 222.14 221.6 167.14 221.35" />
		<path class="cls-12" d="M192,242.73s22-19.25,43.75-25.75,26.25-5.5,25.75,4.25-11,60.75-18,73.75-15.75,36.75-15.5,41.25,8.75,17.75,16.25,22.5,6.75,10.5,2,11.5S236,373,219.71,362.48s-23-25.5-22-29.25,11.5-8.75,15.75-16.25,11.25-35.5,11.75-48.25a75.76,75.76,0,0,1,5-23.5s-27.5,5-35.5,10Z" transform="translate(-4.57 -2.64)" />
		<g class="cls-17">
			<path class="cls-4" d="M192,242.73s22-19.25,43.75-25.75,26.25-5.5,25.75,4.25-11,60.75-18,73.75-15.75,36.75-15.5,41.25,8.75,17.75,16.25,22.5,6.75,10.5,2,11.5S236,373,219.71,362.48s-23-25.5-22-29.25,11.5-8.75,15.75-16.25,11.25-35.5,11.75-48.25a75.76,75.76,0,0,1,5-23.5s-27.5,5-35.5,10Z" transform="translate(-4.57 -2.64)" />
			<path class="cls-8" d="M192,242.73s22-19.25,43.75-25.75,26.25-5.5,25.75,4.25-11,60.75-18,73.75-15.75,36.75-15.5,41.25,8.75,17.75,16.25,22.5,6.75,10.5,2,11.5S236,373,219.71,362.48s-23-25.5-22-29.25,11.5-8.75,15.75-16.25,11.25-35.5,11.75-48.25a75.76,75.76,0,0,1,5-23.5s-27.5,5-35.5,10Z" transform="translate(-4.57 -2.64)" />
		</g>
		<path class="cls-6" d="M192,242.73s22-19.25,43.75-25.75,26.25-5.5,25.75,4.25-11,60.75-18,73.75-15.75,36.75-15.5,41.25,8.75,17.75,16.25,22.5,6.75,10.5,2,11.5S236,373,219.71,362.48s-23-25.5-22-29.25,11.5-8.75,15.75-16.25,11.25-35.5,11.75-48.25a75.76,75.76,0,0,1,5-23.5s-27.5,5-35.5,10Z" transform="translate(-4.57 -2.64)" />
		<path class="cls-2" d="M213.46,317a19.08,19.08,0,0,1-1.06,1.64,25.69,25.69,0,0,1,14.06,5.86,46.16,46.16,0,0,1,3.42,3.31A219.71,219.71,0,0,1,243.46,295c7-13,17.5-64,18-73.75s-4-10.75-25.75-4.25S192,242.73,192,242.73l2.75,12.5c8-5,35.5-10,35.5-10a75.76,75.76,0,0,0-5,23.5C224.71,281.48,217.71,309.48,213.46,317Z" transform="translate(-4.57 -2.64)" />
		<path class="cls-7" d="M213.46,317a19.08,19.08,0,0,1-1.06,1.64,25.69,25.69,0,0,1,14.06,5.86,46.16,46.16,0,0,1,3.42,3.31c4.79-6.43,10.18-26.75,16.26-35.11,15.72-21.59,14.82-61.7,15.32-71.45s-4-10.75-25.75-4.25S192,242.73,192,242.73l2.75,12.5c8-5,35.5-10,35.5-10a75.76,75.76,0,0,0-5,23.5C224.71,281.48,217.71,309.48,213.46,317Z" transform="translate(-4.57 -2.64)" />
		<g class="cls-18">
			<path class="cls-19" d="M213.46,317a19.08,19.08,0,0,1-1.06,1.64,25.69,25.69,0,0,1,14.06,5.86,46.16,46.16,0,0,1,3.42,3.31c4.79-6.43,10.18-26.75,16.26-35.11,15.72-21.59,14.82-61.7,15.32-71.45s-4-10.75-25.75-4.25S192,242.73,192,242.73l2.75,12.5c8-5,35.5-10,35.5-10a75.76,75.76,0,0,0-5,23.5C224.71,281.48,217.71,309.48,213.46,317Z" transform="translate(-4.57 -2.64)" />
			<path class="cls-20" d="M250.89,219.91c-.39-3.55-39.06,12.82-55.37,19.89-2.26,1.8-3.56,2.93-3.56,2.93l2.75,12.5c8-5,35.5-10,35.5-10a75.76,75.76,0,0,0-5,23.5c-.5,12.75-7.5,40.75-11.75,48.25a19.08,19.08,0,0,1-1.06,1.64,28.32,28.32,0,0,1,8,2.07c6.06-12.8,12.48-27.65,15.52-39.28C241.39,260.41,251.39,224.41,250.89,219.91Z" transform="translate(-4.57 -2.64)" />
			<path class="cls-6" d="M230.21,245.23s7.5-15.25,14-21.5" transform="translate(-4.57 -2.64)" />
		</g>
		<path class="cls-6" d="M213.46,317a19.08,19.08,0,0,1-1.06,1.64,25.69,25.69,0,0,1,14.06,5.86,46.16,46.16,0,0,1,3.42,3.31c4.79-6.43,10.18-26.75,16.26-35.11,15.72-21.59,14.82-61.7,15.32-71.45s-4-10.75-25.75-4.25S192,242.73,192,242.73l2.75,12.5c8-5,35.5-10,35.5-10a75.76,75.76,0,0,0-5,23.5C224.71,281.48,217.71,309.48,213.46,317Z" transform="translate(-4.57 -2.64)" />
		<path class="cls-3" d="M159,262.87a86.24,86.24,0,0,0,23.65-4.46c11.31-4.11-9.25-11.65-17.14-7.54A11.72,11.72,0,0,0,159,262.87Z" transform="translate(-4.57 -2.64)" />
		<path class="cls-12" d="M126.46,246.73s-8,4.5-10.75,9.5,9.08,13.34,21.58,12.84S172.71,255,172.71,255s.25,22,4.5,30,23.75,27.5,31.5,32.5,33.75,23.75,37.75,26.75,11.5,8.5,13.25,8.75,20-22,24.25-29.5,8-23.25,6.5-26.75-4.5-.5-7.5,2-30.5,20.75-33,22a27.44,27.44,0,0,1-4.25,1.75s-22.5-21.5-34.5-38-13-37.75-17.5-45.75-11-11.5-20.75-10.5S143,234.48,126.46,246.73Z" transform="translate(-4.57 -2.64)" />
		<g class="cls-21">
			<path class="cls-4" d="M232.24,333.93c6.68,4.79,12.5,9,14.22,10.3,4,3,11.5,8.5,13.25,8.75.62.09,3.32-2.66,6.73-6.57L237.81,328Z" transform="translate(-4.57 -2.64)" />
			<path class="cls-8" d="M232.24,333.93c6.68,4.79,12.5,9,14.22,10.3,4,3,11.5,8.5,13.25,8.75.62.09,3.32-2.66,6.73-6.57L237.81,328Z" transform="translate(-4.57 -2.64)" />
		</g>
		<path class="cls-6" d="M126.46,246.73s-8,4.5-10.75,9.5,9.08,13.34,21.58,12.84S172.71,255,172.71,255s.25,22,4.5,30,23.75,27.5,31.5,32.5,33.75,23.75,37.75,26.75,11.5,8.5,13.25,8.75,20-22,24.25-29.5,8-23.25,6.5-26.75-4.5-.5-7.5,2-30.5,20.75-33,22a27.44,27.44,0,0,1-4.25,1.75s-22.5-21.5-34.5-38-13-37.75-17.5-45.75-11-11.5-20.75-10.5S143,234.48,126.46,246.73Z" transform="translate(-4.57 -2.64)" />
		<path class="cls-7" d="M244.16,321c-5.29-5.16-25.12-31.77-32.95-47.07-11.47-22.41-12.7-30.05-17.2-38.05s-11.3-8.63-21-7.63-27.19,2.81-48.6,15c0,0-9,4.89-11.73,9.89s7.26,17.59,24.66,16c12.46-1.14,35.42-14.09,35.42-14.09s.25,22,4.5,30,23.75,27.5,31.5,32.5c4.91,3.17,17.16,11.87,26.49,18.58C237.54,327.69,241.68,323.1,244.16,321Z" transform="translate(-4.57 -2.64)" />
		<g class="cls-22">
			<path class="cls-19" d="M244.16,321c-5.29-5.16-25.12-31.77-32.95-47.07-11.47-22.41-12.7-30.05-17.2-38.05s-11.3-8.63-21-7.63-27.19,2.81-48.6,15c0,0-9,4.89-11.73,9.89s7.26,17.59,24.66,16c12.46-1.14,35.42-14.09,35.42-14.09s.25,22,4.5,30,23.75,27.5,31.5,32.5c4.91,3.17,17.16,11.87,26.49,18.58C237.54,327.69,241.68,323.1,244.16,321Z" transform="translate(-4.57 -2.64)" />
			<path class="cls-20" d="M193.89,285.41c-7.5-19-3-57-24-52-15.3,3.65-43.34,16.58-57.44,23.33,1.67,5.74,10.87,13.6,24.84,12.33,12.46-1.14,35.42-14.09,35.42-14.09s.25,22,4.5,30,23.75,27.5,31.5,32.5c4.91,3.17,17.16,11.87,26.49,18.58a35.4,35.4,0,0,1,3.5-8.38C220.07,313.93,198.08,296,193.89,285.41Z" transform="translate(-4.57 -2.64)" />
			<line class="cls-6" x1="168.14" y1="252.35" x2="167.39" y2="239.35" />
		</g>
		<path class="cls-6" d="M244.16,321c-5.29-5.16-25.12-31.77-32.95-47.07-11.47-22.41-12.7-30.05-17.2-38.05s-11.3-8.63-21-7.63-27.19,2.81-48.6,15c0,0-9,4.89-11.73,9.89s7.26,17.59,24.66,16c12.46-1.14,35.42-14.09,35.42-14.09s.25,22,4.5,30,23.75,27.5,31.5,32.5c4.91,3.17,17.16,11.87,26.49,18.58C237.54,327.69,241.68,323.1,244.16,321Z" transform="translate(-4.57 -2.64)" />
		<path class="cls-3" d="M246.46,344.23c4,3,11.5,8.5,13.25,8.75s20-22,24.25-29.5,8-23.25,6.5-26.75-4.5-.5-7.5,2-30.5,20.75-33,22c-.65.33-1.25.6-1.79.83-.72,1.37-1.59,3.5-1,4.92,1,2.25,5.25,5.25,5.25,5.25l-7.56,11.35Z" transform="translate(-4.57 -2.64)" />
		<path class="cls-12" d="M284,323.48c4.25-7.5,8-23.25,6.5-26.75-.87-2-2.24-1.87-3.83-.89,1.06,4.68,0,13.69-5.17,23.39-4.61,8.66-18.85,24-26,31.42a16.62,16.62,0,0,0,4.27,2.33C261.46,353.23,279.71,331,284,323.48Z" transform="translate(-4.57 -2.64)" />
		<g class="cls-23">
			<path class="cls-4" d="M260,352.92l.21-.12.07,0,.33-.25.12-.09.29-.25.16-.14q.19-.16.39-.36l.24-.23.33-.33.29-.28.27-.28.72-.75.11-.12.45-.48.17-.19c.53-.57,1.08-1.19,1.66-1.84l0-.05.62-.7h0l-4.36-2.8c-2.49,2.7-4.8,5.13-6.64,7h0c.23.16.45.3.68.44l.09.06.62.39h0l1,.57.28.16.28.15.32.16.22.11.3.13.15.06a2.35,2.35,0,0,0,.36.09.49.49,0,0,0,.19,0Z" transform="translate(-4.57 -2.64)" />
			<path class="cls-8" d="M260,352.92l.21-.12.07,0,.33-.25.12-.09.29-.25.16-.14q.19-.16.39-.36l.24-.23.33-.33.29-.28.27-.28.72-.75.11-.12.45-.48.17-.19c.53-.57,1.08-1.19,1.66-1.84l0-.05.62-.7h0l-4.36-2.8c-2.49,2.7-4.8,5.13-6.64,7h0c.23.16.45.3.68.44l.09.06.62.39h0l1,.57.28.16.28.15.32.16.22.11.3.13.15.06a2.35,2.35,0,0,0,.36.09.49.49,0,0,0,.19,0Z" transform="translate(-4.57 -2.64)" />
		</g>
		<path class="cls-6" d="M284,323.48c4.25-7.5,8-23.25,6.5-26.75-.87-2-2.24-1.87-3.83-.89,1.06,4.68,0,13.69-5.17,23.39-4.61,8.66-18.85,24-26,31.42a16.62,16.62,0,0,0,4.27,2.33C261.46,353.23,279.71,331,284,323.48Z" transform="translate(-4.57 -2.64)" />
		<path class="cls-3" d="M244.21,358.73c-7.5-4.75-16-18-16.25-22.5a7.15,7.15,0,0,1,.12-1.47,7.23,7.23,0,0,0-4.12,1.47,95.58,95.58,0,0,0-9.75-7.75,20.35,20.35,0,0,0-9-2.68c-3.63,3-7,5.39-7.53,7.43-1,3.75,5.75,18.75,22,29.25s21.75,8.75,26.5,7.75S251.71,363.48,244.21,358.73Z" transform="translate(-4.57 -2.64)" />
		<path class="cls-2" d="M196.21,333.73" transform="translate(-4.57 -2.64)" />
		<path class="cls-12" d="M244.21,358.73a32.94,32.94,0,0,1-6.66-6c-5.16-2.19-12.05-5-18.09-8.76-6.5-4-5-6.5-8.75-10.25-2.88-2.87-8.54-3.25-11-3.27a6.85,6.85,0,0,0-2,2.77c-1,3.75,5.75,18.75,22,29.25s21.75,8.75,26.5,7.75S251.71,363.48,244.21,358.73Z" transform="translate(-4.57 -2.64)" />
		<g class="cls-24">
			<path class="cls-4" d="M244.21,358.73a32.94,32.94,0,0,1-6.66-6c-5.16-2.19-12.05-5-18.09-8.76-6.5-4-5-6.5-8.75-10.25-2.88-2.87-8.54-3.25-11-3.27a6.85,6.85,0,0,0-2,2.77c-1,3.75,5.75,18.75,22,29.25s21.75,8.75,26.5,7.75S251.71,363.48,244.21,358.73Z" transform="translate(-4.57 -2.64)" />
			<path class="cls-8" d="M244.21,358.73a32.94,32.94,0,0,1-6.66-6c-5.16-2.19-12.05-5-18.09-8.76-6.5-4-5-6.5-8.75-10.25-2.88-2.87-8.54-3.25-11-3.27a6.85,6.85,0,0,0-2,2.77c-1,3.75,5.75,18.75,22,29.25s21.75,8.75,26.5,7.75S251.71,363.48,244.21,358.73Z" transform="translate(-4.57 -2.64)" />
		</g>
		<path class="cls-6" d="M244.21,358.73a32.94,32.94,0,0,1-6.66-6c-5.16-2.19-12.05-5-18.09-8.76-6.5-4-5-6.5-8.75-10.25-2.88-2.87-8.54-3.25-11-3.27a6.85,6.85,0,0,0-2,2.77c-1,3.75,5.75,18.75,22,29.25s21.75,8.75,26.5,7.75S251.71,363.48,244.21,358.73Z" transform="translate(-4.57 -2.64)" />
		<path class="cls-7" d="M245.46,360.48c-6.5-3.75-19.75-6.25-28.25-12s-6.25-10.75-12.5-14.75a6.37,6.37,0,0,0-7-.4c-.87,3.9,5.9,18.74,22,29.15s21.75,8.75,26.5,7.75c3.16-.66,4.53-3.43,2.9-6.6A13.66,13.66,0,0,0,245.46,360.48Z" transform="translate(-4.57 -2.64)" />
		<g class="cls-25">
			<path class="cls-19" d="M245.46,360.48c-6.5-3.75-19.75-6.25-28.25-12s-6.25-10.75-12.5-14.75a6.37,6.37,0,0,0-7-.4c-.87,3.9,5.9,18.74,22,29.15s21.75,8.75,26.5,7.75c3.16-.66,4.53-3.43,2.9-6.6A13.66,13.66,0,0,0,245.46,360.48Z" transform="translate(-4.57 -2.64)" />
		</g>
		<path class="cls-6" d="M245.46,360.48c-6.5-3.75-19.75-6.25-28.25-12s-6.25-10.75-12.5-14.75a6.37,6.37,0,0,0-7-.4c-.87,3.9,5.9,18.74,22,29.15s21.75,8.75,26.5,7.75c3.16-.66,4.53-3.43,2.9-6.6A13.66,13.66,0,0,0,245.46,360.48Z" transform="translate(-4.57 -2.64)" />
		<path class="cls-2" d="M120.88,312.66s4.8-5.82,5.49-1.37S126,324,122.6,327.06s-5.14-1.72-5.14-1.72l2.05-2.74s1.72,3.43,3.09-2.05-2.75-4.8-2.75-4.8Z" transform="translate(-4.57 -2.64)" />
		<path class="cls-2" d="M117.21,334.6c-2.84,2.1-12.09,2.1-14.93,0-6-4.45-5-26-5-26h24.86S123.22,330.15,117.21,334.6Z" transform="translate(-4.57 -2.64)" />
		<g style="animation: 1.5s tea_smoke infinite linear alternate;">
		<path class="cls-6" d="M100,304.44c0-2.71,2.51-2.71,2.51-5.42s-2.51-2.7-2.51-5.41,2.51-2.71,2.51-5.41-2.51-2.71-2.51-5.42,2.51-2.71,2.51-5.42" transform="translate(-4.57 -2.64)" />
		</g>
		<g style="animation: 2.20s tea_smoke infinite linear alternate;">
		<path style="stroke: #fff;" class="cls-6" d="M108.59,304.44c0-2.06,2.51-2.06,2.51-4.11s-2.51-2.06-2.51-4.11,2.51-2.06,2.51-4.12-2.51-2.06-2.51-4.11,2.51-2.06,2.51-4.12" transform="translate(-4.57 -2.64)" />
		</g>
		<g style="animation: 1.75s tea_smoke infinite linear alternate;">
		<path class="cls-6" d="M118,304.44c0-2.71,2.51-2.71,2.51-5.42s-2.51-2.7-2.51-5.41,2.51-2.71,2.51-5.41-2.51-2.71-2.51-5.42,2.51-2.71,2.51-5.42" transform="translate(-4.57 -2.64)" />
		</g>
		<path class="cls-2" d="M122.16,308.65c0,.63-5.56,1.14-12.43,1.14s-12.43-.51-12.43-1.14,5.57-1.13,12.43-1.13S122.16,308,122.16,308.65Z" transform="translate(-4.57 -2.64)" />
		<path class="cls-12" d="M145.11,153.94s1.17,12.63,1.66,16.61,1.61,15.45,2.76,19.24,7.41,10.38,8,8.86,3.7-11.82,2.46-17.94-1.62-11.45-.84-13,3.54-3.31,3.54-3.31a96.56,96.56,0,0,1-9.39-5.47C148.86,156,145.73,152.58,145.11,153.94Z" transform="translate(-4.57 -2.64)" />
		<g class="cls-26">
			<path class="cls-4" d="M161.16,165l-1-1.95c-1.84-1-4.4-2.48-6.82-4.11-4.46-3-7.59-6.37-8.21-5,0,0,1.17,12.63,1.66,16.61s1.61,15.45,2.76,19.24a12.68,12.68,0,0,0,1.6,3.12c-1.21-7.54.1-21.15.1-21.15Z" transform="translate(-4.57 -2.64)" />
			<path class="cls-8" d="M161.16,165l-1-1.95c-1.84-1-4.4-2.48-6.82-4.11-4.46-3-7.59-6.37-8.21-5,0,0,1.17,12.63,1.66,16.61s1.61,15.45,2.76,19.24a12.68,12.68,0,0,0,1.6,3.12c-1.21-7.54.1-21.15.1-21.15Z" transform="translate(-4.57 -2.64)" />
		</g>
		<path class="cls-6" d="M145.11,153.94s1.17,12.63,1.66,16.61,1.61,15.45,2.76,19.24,7.41,10.38,8,8.86,3.7-11.82,2.46-17.94-1.62-11.45-.84-13,3.54-3.31,3.54-3.31a96.56,96.56,0,0,1-9.39-5.47C148.86,156,145.73,152.58,145.11,153.94Z" transform="translate(-4.57 -2.64)" />
		<path class="cls-12" d="M144.65,155.74s7.2,6,12.73,8.2,14,2.06,15.2-.81-2.1-25.6-5-31.58-5.89-6.08-10.92-6.54-15.09,3.65-16.85,8.5.24,11.75,1.71,15.82A29.78,29.78,0,0,0,144.65,155.74Z" transform="translate(-4.57 -2.64)" />
		<g class="cls-27">
			<path class="cls-4" d="M157.59,155.48c-2.56-7.59-3.18-19.46-3.18-22.64,0-2.45,6.38-5.14,9.29-6.24-1.9-1.18-4.12-1.33-7-1.59-5-.45-15.09,3.65-16.85,8.5s.24,11.75,1.71,15.82a29.78,29.78,0,0,0,3.08,6.41s7.2,6,12.73,8.2a23,23,0,0,0,11.94,1.16C165.41,163.6,159.29,160.53,157.59,155.48Z" transform="translate(-4.57 -2.64)" />
			<path class="cls-8" d="M157.59,155.48c-2.56-7.59-3.18-19.46-3.18-22.64,0-2.45,6.38-5.14,9.29-6.24-1.9-1.18-4.12-1.33-7-1.59-5-.45-15.09,3.65-16.85,8.5s.24,11.75,1.71,15.82a29.78,29.78,0,0,0,3.08,6.41s7.2,6,12.73,8.2a23,23,0,0,0,11.94,1.16C165.41,163.6,159.29,160.53,157.59,155.48Z" transform="translate(-4.57 -2.64)" />
		</g>
		<path class="cls-6" d="M144.65,155.74s7.2,6,12.73,8.2,14,2.06,15.2-.81-2.1-25.6-5-31.58-5.89-6.08-10.92-6.54-15.09,3.65-16.85,8.5.24,11.75,1.71,15.82A29.78,29.78,0,0,0,144.65,155.74Z" transform="translate(-4.57 -2.64)" />
		<path class="cls-6" d="M168.18,140.89c.11,2.88-1.7,5.29-4,5.38s-4.33-2.17-4.44-5.05,1.69-5.29,4-5.38S168.06,138,168.18,140.89Z" transform="translate(-4.57 -2.64)" />
		<path class="cls-6" d="M173.84,139.79c.11,2.88-.82,5.26-2.08,5.31s-2.37-2.25-2.49-5.13.82-5.25,2.08-5.3S173.72,136.91,173.84,139.79Z" transform="translate(-4.57 -2.64)" />
		<path class="cls-2" d="M168.47,139.85s8.26,1.57,7.47,3.56-6.39,4.14-6.39,4.14" transform="translate(-4.57 -2.64)" />
		<path class="cls-6" d="M168,138.93s.12-1,1.4-.37" transform="translate(-4.57 -2.64)" />
		<line class="cls-6" x1="154.89" y1="139.05" x2="139.87" y2="144.96" />
		<path class="cls-28" d="M159.67,136.83a3.81,3.81,0,0,1,3.74-2.26" transform="translate(-4.57 -2.64)" />
		<line class="cls-28" x1="165.1" y1="132" x2="162.79" y2="132.88" />
		<path class="cls-6" d="M162.53,151.42s3-.79,4.71,1" transform="translate(-4.57 -2.64)" />
		<path class="cls-7" d="M164.47,141.44c.13,1-.05,1.85-.42,1.9s-.77-.72-.9-1.72,0-1.86.41-1.91S164.33,140.43,164.47,141.44Z" transform="translate(-4.57 -2.64)" />
		<path class="cls-3" d="M145.85,147.64s-1,2,1.83,2.11,4.73-1.28,3.36-3-3.39-3.34-1.31-5.6,6.15-4.16,3.87-6.68-10.67-.24-8.57-2.28,11.8-4.16,16.17-3.9,12.5-3.1,14.28-7.53-.71-12.59-6.57-12.14-10.23,5.62-12.82,5.94-7.94-2.51-12.41.06-4.62,9.75-5,10.64-6.44,2.21-7.5,8.35a16.27,16.27,0,0,0,4.24,13.76c2.5,2.73,3.63,3.77,3.63,3.77Z" transform="translate(-4.57 -2.64)" />
		<path style="stroke: #00d2d3;" class="cls-29" d="M133.13,136.56a4.75,4.75,0,0,0,.64,2.66" transform="translate(-4.57 -2.64)" />
		<path style="stroke: #00d2d3;" class="cls-29" d="M158.62,120.73S156.44,116,162,116s6.37,7,.6,9.55-18.29,3.18-25,6.16a8.69,8.69,0,0,0-3.44,2.44" transform="translate(-4.57 -2.64)" />
		<path style="stroke: #00d2d3;" class="cls-29" d="M148.56,137.67c-2,.72-4.59,1.72-7.23,3-5.57,2.58-4.38,5.16-4.38,5.16" transform="translate(-4.57 -2.64)" />
		<path style="stroke: #00d2d3;" class="cls-29" d="M152.26,136.44s-.48.14-1.31.42" transform="translate(-4.57 -2.64)" />
		<path style="stroke: #00d2d3;" class="cls-12" d="M146.81,149.78s-3.23-4.66-6.64-2.79-.75,8.52,1.3,10.83,6-2,6.4-3.08" transform="translate(-4.57 -2.64)" />
		<g class="cls-30">
			<path class="cls-4" d="M146.81,149.78s-3.23-4.66-6.64-2.79-.75,8.52,1.3,10.83,6-2,6.4-3.08" transform="translate(-4.57 -2.64)" />
			<path class="cls-8" d="M146.81,149.78s-3.23-4.66-6.64-2.79-.75,8.52,1.3,10.83,6-2,6.4-3.08" transform="translate(-4.57 -2.64)" />
		</g>
		<path class="cls-6" d="M146.81,149.78s-3.23-4.66-6.64-2.79-.75,8.52,1.3,10.83,6-2,6.4-3.08" transform="translate(-4.57 -2.64)" />
		<rect class="cls-2" x="24.64" y="142.89" width="81.92" height="62.64" rx="5.12" />
		<polyline class="cls-2" points="105 187.96 153 200.46 105 176.96" />
		<rect class="cls-1" x="31.26" y="148.92" width="19.27" height="50.6" />
		<rect class="cls-1" x="99.89" y="148.92" width="2.41" height="50.6" />
		<rect class="cls-3" x="99.89" y="172.05" width="2.41" height="4.32" />
		<line class="cls-2" x1="56.56" y1="150.12" x2="94.51" y2="150.12" />
		<line class="cls-2" x1="56.56" y1="155.54" x2="94.51" y2="155.54" />
		<line class="cls-2" x1="56.56" y1="160.96" x2="94.51" y2="160.96" />
		<line class="cls-2" x1="56.56" y1="166.38" x2="94.51" y2="166.38" />
		<line class="cls-2" x1="56.56" y1="179.64" x2="94.51" y2="179.64" />
		<line class="cls-2" x1="56.56" y1="184.45" x2="94.51" y2="184.45" />
		<line class="cls-2" x1="56.56" y1="189.27" x2="94.51" y2="189.27" />
		<line class="cls-2" x1="56.56" y1="199.27" x2="94.51" y2="199.27" />
		<line class="cls-6" x1="31.26" y1="199.51" x2="50.54" y2="148.92" />
	</g>
	<g id="Plants">
		<ellipse class="cls-4" cx="321.68" cy="332.04" rx="16.73" ry="7.5" />
		<ellipse class="cls-8" cx="321.68" cy="332.04" rx="16.73" ry="7.5" />
		<path class="cls-7" d="M306.69,223.69c1.79.78,6.17.68,6.17.68s-.94-2.86-1-3c-1-2-4-5.32-6.47-5A2.94,2.94,0,0,0,303,220C303.41,221.75,305.16,223,306.69,223.69Z" transform="translate(-4.57 -2.64)" />
		<path class="cls-7" d="M364.05,208.79c-2.48-.27-5.43,3.13-6.34,5.16-.07.18-1,3.07-.94,3.07h.06c-.47.53-1,1.11-1.5,1.75-1,1.19-2.06,2.55-3.14,4.1a53.32,53.32,0,0,0-3.25,5.18,38.47,38.47,0,0,0-2.78,6.26s0,.05,0,.08c0-.73,0-2.78,0-2.93-.29-2.21-2.14-6.31-4.59-6.77a3,3,0,0,0-3.41,2.78c-.14,1.76,1.13,3.51,2.37,4.62,1.4,1.25,5.29,2.46,5.59,2.56a53.53,53.53,0,0,0-1.64,6.77c-.23,1.34-.43,2.69-.61,4.05,0-.63,0-1.2,0-1.28-.28-2.21-2.14-6.31-4.59-6.76a3,3,0,0,0-3.4,2.78c-.15,1.75,1.13,3.51,2.37,4.62s4.55,2.22,5.42,2.5c-.06.52-.13,1-.2,1.56-.29,2.51-.58,5-.94,7.45-.12.86-.28,1.7-.43,2.55,0-.56,0-1,0-1.11-.29-2.21-2.14-6.31-4.59-6.76a3,3,0,0,0-3.41,2.77c-.14,1.76,1.13,3.52,2.37,4.63s4.23,2.11,5.27,2.45c-.18.86-.36,1.72-.58,2.54-.16.56-.27,1.11-.46,1.67s-.36,1.1-.53,1.64c-.38,1-.76,2.09-1.15,3.09-.27.69-.53,1.35-.8,2,.13-.85.36-2.53.37-2.68a11.44,11.44,0,0,0-1.54-5.57,3.66,3.66,0,0,0,0-.66,3,3,0,0,0-3.61-2.5c-2.41.64-3.94,4.87-4,7.1,0,.13.07,1.56.14,2.46-.12-.52-.23-1-.36-1.57-.25-1.07-.54-2.12-.84-3.26-.16-.54-.33-1.09-.5-1.65s-.39-1.12-.58-1.69c-.48-1.3-1-2.6-1.6-3.89.93-.23,4.23-1.07,5.56-2.09s2.72-2.67,2.71-4.43a3,3,0,0,0-3.19-3c-2.48.27-4.64,4.22-5.09,6.4,0,.14-.17,1.74-.23,2.62-.36-.77-.71-1.55-1.09-2.32-1.11-2.24-2.3-4.46-3.48-6.69l-1.07-2c.33-.08,4.28-1,5.76-2.13,1.32-1,2.73-2.67,2.71-4.44a3,3,0,0,0-3.19-3c-2.48.27-4.63,4.22-5.08,6.4,0,.17-.24,2.47-.26,3.06-.79-1.5-1.55-3-2.24-4.52a51.9,51.9,0,0,1-2.44-6.29c.16,0,4.28-1,5.8-2.14,1.32-1,2.72-2.67,2.71-4.43a2.94,2.94,0,0,0-3.19-3c-2.48.27-4.63,4.22-5.08,6.4,0,.17-.26,2.65-.27,3.1l-.13-.37a39.07,39.07,0,0,1-1.26-6.64c-.14-1.24-.2-2.43-.24-3.59.79-.1,4.37-.58,5.86-1.48s3-2.35,3.18-4.1a3,3,0,0,0-2.84-3.36c-2.49,0-5.07,3.69-5.76,5.81,0,.11-.28,1.33-.45,2.21,0-.52,0-1.06,0-1.57,0-1.88.13-3.61.24-5.14.08-.87.16-1.65.25-2.38.72-.5,3.61-2.54,4.49-4s1.58-3.47.93-5.11a2.94,2.94,0,0,0-4.06-1.67c-2.22,1.14-2.8,5.61-2.43,7.8,0,.19.86,3.11.9,3.08l0,0c-.1.7-.2,1.46-.29,2.29-.15,1.53-.31,3.26-.35,5.15a51.38,51.38,0,0,0,.15,6.12,38.06,38.06,0,0,0,1.13,6.75.19.19,0,0,1,0,.07c-.39-.61-1.54-2.3-1.65-2.42-1.45-1.68-5.26-4.08-7.56-3.11a3,3,0,0,0-1.31,4.2c.85,1.54,2.88,2.3,4.53,2.54,1.86.27,5.76-.86,6.08-1a50.23,50.23,0,0,0,2.37,6.56c.53,1.24,1.11,2.48,1.71,3.71-.36-.52-.68-1-.73-1-1.46-1.69-5.27-4.09-7.56-3.11a2.94,2.94,0,0,0-1.31,4.19c.85,1.55,2.88,2.31,4.53,2.55s5-.66,5.9-.91c.24.47.46.95.7,1.42,1.13,2.25,2.27,4.49,3.32,6.73.37.78.71,1.57,1.05,2.36-.32-.46-.59-.85-.64-.9-1.46-1.69-5.26-4.09-7.56-3.11a3,3,0,0,0-1.31,4.19c.85,1.54,2.88,2.31,4.53,2.55s4.69-.57,5.74-.86c.33.81.65,1.63.93,2.44.17.55.38,1.08.53,1.64s.31,1.12.46,1.66c.25,1.07.52,2.17.75,3.21.16.73.3,1.43.44,2.13-.36-.79-1.09-2.32-1.17-2.44-1.19-1.89-4.58-4.83-7-4.22a3,3,0,0,0-1.93,3.95c.6,1.65,2.5,2.72,4.09,3.2,1.75.54,5.63.05,6.11,0,.23,1.16.45,2.29.63,3.36.66,3.71,1.06,6.82,1.31,9,.05.39.08.74.12,1.06h-7.51l2.42,47.1a6.73,6.73,0,0,0,6.72,6.39h0a6.73,6.73,0,0,0,6.72-6.39l2.42-47.1h-7c.06-.11.1-.21.16-.32,1-2,2.29-4.87,3.73-8.39.45-1.11.92-2.3,1.39-3.54.47.1,4.31.88,6.1.48,1.62-.37,3.58-1.29,4.31-2.89a3,3,0,0,0-1.63-4.08c-2.36-.8-6,1.89-7.3,3.68-.07.11-.79,1.35-1.23,2.14.19-.5.37-1,.56-1.51.38-1,.72-2.07,1.1-3.18.16-.55.33-1.1.5-1.66s.29-1.14.44-1.72c.32-1.35.58-2.74.81-4.14.9.33,4.12,1.45,5.79,1.33s3.74-.72,4.7-2.2a3,3,0,0,0-1-4.28c-2.22-1.14-6.19,1-7.77,2.54-.1.09-1.1,1.35-1.64,2,.13-.84.26-1.68.37-2.54.31-2.47.54-5,.79-7.49.07-.77.15-1.54.23-2.3.32.12,4.12,1.53,6,1.4,1.66-.11,3.74-.72,4.7-2.2a3,3,0,0,0-1-4.28c-2.22-1.14-6.19,1-7.77,2.54-.12.11-1.57,1.92-1.91,2.4.18-1.69.37-3.36.63-5a52.68,52.68,0,0,1,1.43-6.59c.15.06,4.11,1.55,6,1.42,1.66-.12,3.74-.73,4.71-2.2a3,3,0,0,0-1-4.28c-2.21-1.15-6.19,1-7.77,2.53-.12.13-1.68,2.07-1.93,2.44,0-.12.06-.26.1-.38a37.33,37.33,0,0,1,2.61-6.23c.56-1.11,1.17-2.14,1.78-3.13.71.35,4,1.93,5.7,2s3.8-.31,4.91-1.67a2.94,2.94,0,0,0-.51-4.36c-2.08-1.38-6.26.28-8,1.66-.1.08-1,.95-1.61,1.6.28-.44.57-.9.85-1.32,1-1.57,2.09-2.95,3-4.16.55-.68,1.05-1.29,1.53-1.85.87,0,4.4-.13,5.94-.85s3.23-2,3.6-3.75A3,3,0,0,0,364.05,208.79Zm-27.46,66.64c-1.5,3.45-2.88,6.26-3.87,8.22l-.55,1.06H332c0-.38-.1-.8-.16-1.27-.31-2.19-.78-5.32-1.52-9.05-.23-1.18-.5-2.43-.79-3.72a31,31,0,0,0,3.41-1.6,21.82,21.82,0,0,0,5,3.21C337.46,273.37,337,274.43,336.59,275.43Z" transform="translate(-4.57 -2.64)" />
		<path class="cls-7" d="M351,224.65s.8-2.91.82-3.1c.31-2.2-.39-6.65-2.64-7.73a3,3,0,0,0-4,1.78c-.6,1.65.16,3.68,1.07,5.08C347.27,222.32,351,224.65,351,224.65Z" transform="translate(-4.57 -2.64)" />
	</g>
</svg>